<svg width="20" height="20" viewBox="0 0 20 20" fill="none" xmlns="http://www.w3.org/2000/svg">
<path d="M17.1875 9.5625C17.3438 9.5625 17.5 9.71875 17.5 9.875V11.125C17.5 11.3203 17.3438 11.4375 17.1875 11.4375H10.9375V17.6875C10.9375 17.8828 10.7812 18 10.625 18H9.375C9.17969 18 9.0625 17.8828 9.0625 17.6875V11.4375H2.8125C2.61719 11.4375 2.5 11.3203 2.5 11.125V9.875C2.5 9.71875 2.61719 9.5625 2.8125 9.5625H9.0625V3.3125C9.0625 3.15625 9.17969 3 9.375 3H10.625C10.7812 3 10.9375 3.15625 10.9375 3.3125V9.5625H17.1875Z" fill="#717274"/>
</svg>
