<svg width="29" height="25" viewBox="0 0 29 25" fill="none" xmlns="http://www.w3.org/2000/svg">
<path d="M12.625 10.6094C12.625 10.2812 12.8594 10 13.1875 10H15.7656C16.0938 10 16.3281 10.2812 16.3281 10.6094L16 15.8594C16 16.1406 15.7656 16.375 15.4375 16.375H13.5156C13.1875 16.375 12.9531 16.1875 12.9531 15.8594L12.625 10.6094ZM16.4688 19C16.4688 20.125 15.5781 20.9688 14.5 20.9688C13.375 20.9688 12.5312 20.125 12.5312 19C12.5312 17.9219 13.375 17.0312 14.5 17.0312C15.5781 17.0312 16.4688 17.9219 16.4688 19ZM16.4219 2.125L27.6719 21.6719C28.5156 23.1719 27.4375 25 25.7031 25H3.25C1.51562 25 0.4375 23.125 1.28125 21.6719L12.5312 2.125C13.375 0.625 15.5781 0.671875 16.4219 2.125ZM3.48438 22.375C3.34375 22.5625 3.48438 22.75 3.71875 22.75H25.2344C25.4688 22.75 25.6094 22.5625 25.4688 22.375L14.7344 3.71875C14.5938 3.53125 14.3594 3.53125 14.2188 3.71875L3.48438 22.375Z" fill="#EA3349"/>
</svg>
