<svg width="32" height="32" viewBox="0 0 32 32" fill="none" xmlns="http://www.w3.org/2000/svg">
<path d="M31.5 16C31.5 24.5625 24.5 31.5 16 31.5C7.4375 31.5 0.5 24.5625 0.5 16C0.5 7.5 7.4375 0.5 16 0.5C24.5 0.5 31.5 7.5 31.5 16ZM14.1875 24.25L25.6875 12.75C26.0625 12.375 26.0625 11.6875 25.6875 11.3125L24.25 9.9375C23.875 9.5 23.25 9.5 22.875 9.9375L13.5 19.3125L9.0625 14.9375C8.6875 14.5 8.0625 14.5 7.6875 14.9375L6.25 16.3125C5.875 16.6875 5.875 17.375 6.25 17.75L12.75 24.25C13.125 24.625 13.8125 24.625 14.1875 24.25Z" fill="#068A15"/>
</svg>
