<svg width="14" height="20" viewBox="0 0 14 20" fill="none" xmlns="http://www.w3.org/2000/svg">
<path d="M8.28906 10.5L13.1328 15.3438C13.25 15.4609 13.25 15.6562 13.1328 15.8125L12.2734 16.6719C12.1172 16.7891 11.9219 16.7891 11.8047 16.6719L10.9844 15.8516L7 11.8281L2.15625 16.6719C2.03906 16.7891 1.84375 16.7891 1.6875 16.6719L0.828125 15.8125C0.710938 15.6562 0.710938 15.4609 0.828125 15.3438L5.67188 10.5L0.828125 5.69531C0.710938 5.57812 0.710938 5.38281 0.828125 5.22656L1.6875 4.36719C1.84375 4.25 2.03906 4.25 2.15625 4.36719L7 9.21094L11.8047 4.36719C11.9219 4.25 12.1172 4.25 12.2734 4.36719L13.1328 5.22656C13.25 5.38281 13.25 5.57812 13.1328 5.69531L12.3125 6.51562L8.28906 10.5Z" fill="#717274"/>
</svg>
