<svg width="18" height="20" viewBox="0 0 18 20" fill="none" xmlns="http://www.w3.org/2000/svg">
<path d="M17.125 3.125C17.4375 3.125 17.75 3.4375 17.75 3.75V4.375C17.75 4.72656 17.4375 5 17.125 5H16.5L15.6406 18.2422C15.6016 19.2578 14.7812 20 13.7656 20H4.19531C3.17969 20 2.35938 19.2578 2.32031 18.2422L1.5 5H0.875C0.523438 5 0.25 4.72656 0.25 4.375V3.75C0.25 3.4375 0.523438 3.125 0.875 3.125H4.07812L5.40625 0.9375C5.71875 0.390625 6.34375 0 7.00781 0H10.9531C11.6172 0 12.2422 0.390625 12.5547 0.9375L13.8828 3.125H17.125ZM7.00781 1.875L6.26562 3.125H11.6953L10.9531 1.875H7.00781ZM13.7656 18.125L14.5859 5H3.375L4.19531 18.125H13.7656Z" fill="#D0021B"/>
</svg>
