<svg width="23" height="21" viewBox="0 0 23 21" fill="none" xmlns="http://www.w3.org/2000/svg">
<path d="M15.9531 14.4766L17.2031 13.2266C17.3984 13.0312 17.75 13.1875 17.75 13.4609V19.125C17.75 20.1797 16.8906 21 15.875 21H2.125C1.07031 21 0.25 20.1797 0.25 19.125V5.375C0.25 4.35938 1.07031 3.5 2.125 3.5H12.7891C13.0625 3.5 13.2188 3.85156 13.0234 4.04688L11.7734 5.29688C11.6953 5.375 11.6172 5.375 11.5391 5.375H2.125V19.125H15.875V14.7109C15.875 14.6328 15.875 14.5547 15.9531 14.4766ZM22.0469 6.625L11.8125 16.8594L8.25781 17.25C7.24219 17.3672 6.38281 16.5078 6.5 15.4922L6.89062 11.9375L17.125 1.70312C18.0234 0.804688 19.4688 0.804688 20.3672 1.70312L22.0469 3.38281C22.9453 4.28125 22.9453 5.72656 22.0469 6.625ZM18.2188 7.79688L15.9531 5.53125L8.6875 12.7969L8.375 15.375L10.9531 15.0625L18.2188 7.79688ZM20.7188 4.71094L19.0391 3.03125C18.8828 2.83594 18.6094 2.83594 18.4531 3.03125L17.2812 4.20312L19.5469 6.50781L20.7578 5.29688C20.9141 5.10156 20.9141 4.86719 20.7188 4.71094Z" fill="#717274"/>
</svg>
