<svg width="400" height="272" viewBox="0 0 400 272" fill="none" xmlns="http://www.w3.org/2000/svg">
<g clip-path="url(#clip0_4733_77338)">
<path d="M221.362 126.435H121.103C119.503 126.433 117.969 125.781 116.838 124.622C115.707 123.463 115.07 121.892 115.068 120.252V75.2277C115.07 73.5885 115.707 72.0169 116.838 70.8578C117.969 69.6988 119.503 69.0468 121.103 69.0449H221.362C222.962 69.0468 224.496 69.6988 225.628 70.8578C226.759 72.0169 227.395 73.5885 227.397 75.2277V120.252C227.395 121.892 226.759 123.463 225.628 124.622C224.496 125.781 222.962 126.433 221.362 126.435Z" fill="#E6E6E6"/>
<path d="M6.84932 17.1204C10.6321 17.1204 13.6986 14.0615 13.6986 10.2882C13.6986 6.51492 10.6321 3.45605 6.84932 3.45605C3.06654 3.45605 0 6.51492 0 10.2882C0 14.0615 3.06654 17.1204 6.84932 17.1204Z" fill="#001146"/>
<path d="M10.9584 17.1204C9.33284 17.1204 7.74374 16.6395 6.39211 15.7386C5.04047 14.8378 3.987 13.5573 3.36491 12.0592C2.74282 10.5611 2.58005 8.91265 2.89719 7.32228C3.21433 5.73191 3.99713 4.27106 5.1466 3.12446C6.29607 1.97787 7.76059 1.19703 9.35496 0.880682C10.9493 0.564337 12.6019 0.726698 14.1038 1.34723C15.6056 1.96776 16.8893 3.0186 17.7924 4.36685C18.6956 5.7151 19.1776 7.30022 19.1776 8.92175C19.1751 11.0954 18.3084 13.1793 16.7675 14.7163C15.2267 16.2533 13.1375 17.1179 10.9584 17.1204ZM10.9584 1.6341C9.51346 1.6341 8.10093 2.06151 6.89948 2.86229C5.69802 3.66307 4.76161 4.80125 4.20864 6.13289C3.65567 7.46453 3.51099 8.92983 3.79289 10.3435C4.07479 11.7572 4.77061 13.0557 5.79236 14.0749C6.81411 15.0941 8.1159 15.7882 9.53312 16.0694C10.9503 16.3506 12.4193 16.2062 13.7543 15.6547C15.0893 15.1031 16.2303 14.169 17.0331 12.9706C17.8359 11.7721 18.2644 10.3631 18.2644 8.92175C18.2622 6.98962 17.4917 5.13726 16.1221 3.77104C14.7524 2.40482 12.8954 1.6363 10.9584 1.6341Z" fill="#3F3D56"/>
<path d="M97.2604 110.038C101.043 110.038 104.11 106.979 104.11 103.206C104.11 99.4324 101.043 96.3735 97.2604 96.3735C93.4777 96.3735 90.4111 99.4324 90.4111 103.206C90.4111 106.979 93.4777 110.038 97.2604 110.038Z" fill="#E6E6E6"/>
<path d="M98.6303 110.038C97.0047 110.038 95.4156 109.557 94.064 108.656C92.7123 107.755 91.6589 106.475 91.0368 104.977C90.4147 103.479 90.2519 101.83 90.5691 100.24C90.8862 98.6494 91.669 97.1885 92.8185 96.042C93.968 94.8954 95.4325 94.1145 97.0268 93.7982C98.6212 93.4818 100.274 93.6442 101.776 94.2647C103.278 94.8852 104.561 95.9361 105.464 97.2843C106.367 98.6326 106.849 100.218 106.849 101.839C106.847 104.013 105.98 106.097 104.439 107.634C102.899 109.171 100.809 110.035 98.6303 110.038ZM98.6303 94.5516C97.1853 94.5516 95.7728 94.979 94.5713 95.7798C93.3699 96.5806 92.4335 97.7187 91.8805 99.0504C91.3275 100.382 91.1829 101.847 91.4648 103.261C91.7467 104.675 92.4425 105.973 93.4642 106.992C94.486 108.012 95.7878 108.706 97.205 108.987C98.6222 109.268 100.091 109.124 101.426 108.572C102.761 108.021 103.902 107.086 104.705 105.888C105.508 104.69 105.936 103.281 105.936 101.839C105.934 99.9071 105.164 98.0547 103.794 96.6885C102.424 95.3223 100.567 94.5538 98.6303 94.5516Z" fill="#3F3D56"/>
<path d="M154.795 55.3804C158.577 55.3804 161.644 52.3215 161.644 48.5482C161.644 44.7749 158.577 41.7161 154.795 41.7161C151.012 41.7161 147.945 44.7749 147.945 48.5482C147.945 52.3215 151.012 55.3804 154.795 55.3804Z" fill="#001146"/>
<path d="M156.164 52.6477C154.539 52.6477 152.95 52.1669 151.598 51.266C150.247 50.3651 149.193 49.0847 148.571 47.5866C147.949 46.0885 147.786 44.44 148.103 42.8496C148.42 41.2593 149.203 39.7984 150.353 38.6518C151.502 37.5052 152.967 36.7244 154.561 36.408C156.155 36.0917 157.808 36.254 159.31 36.8746C160.812 37.4951 162.095 38.5459 162.998 39.8942C163.902 41.2424 164.384 42.8276 164.384 44.4491C164.381 46.6227 163.514 48.7067 161.974 50.2437C160.433 51.7807 158.344 52.6452 156.164 52.6477ZM156.164 37.1614C154.72 37.1614 153.307 37.5889 152.106 38.3896C150.904 39.1904 149.968 40.3286 149.415 41.6602C148.862 42.9919 148.717 44.4572 148.999 45.8708C149.281 47.2845 149.977 48.583 150.998 49.6022C152.02 50.6214 153.322 51.3155 154.739 51.5967C156.156 51.8779 157.625 51.7336 158.96 51.182C160.295 50.6304 161.436 49.6963 162.239 48.4979C163.042 47.2994 163.47 45.8905 163.47 44.4491C163.468 42.517 162.698 40.6646 161.328 39.2984C159.958 37.9321 158.101 37.1636 156.164 37.1614Z" fill="#3F3D56"/>
<path d="M122.732 85.442H22.4733C20.8733 85.4401 19.3394 84.7881 18.2081 83.6291C17.0767 82.47 16.4403 80.8984 16.4385 79.2592V34.2347C16.4403 32.5955 17.0766 31.0239 18.208 29.8648C19.3394 28.7056 20.8733 28.0536 22.4733 28.0518H122.732C124.332 28.0536 125.866 28.7056 126.998 29.8648C128.129 31.0239 128.765 32.5955 128.767 34.2347V79.2592C128.765 80.8984 128.129 82.47 126.998 83.6291C125.866 84.7882 124.332 85.4401 122.732 85.442Z" fill="#001146"/>
<path d="M128.021 79.9764H28.1441C26.4934 79.9745 24.9108 79.3044 23.7436 78.1132C22.5764 76.9219 21.9198 75.3067 21.918 73.622V28.9406C21.9198 27.2559 22.5764 25.6407 23.7436 24.4494C24.9108 23.2582 26.4934 22.5881 28.1441 22.5862H128.021C129.671 22.5881 131.254 23.2582 132.421 24.4494C133.588 25.6407 134.245 27.2558 134.247 28.9406V73.622C134.245 75.3067 133.588 76.9219 132.421 78.1132C131.254 79.3044 129.671 79.9745 128.021 79.9764ZM28.1441 23.4612C26.7207 23.4629 25.3561 24.0407 24.3496 25.0679C23.3431 26.0951 22.777 27.4879 22.7753 28.9406V73.622C22.777 75.0747 23.3431 76.4675 24.3496 77.4947C25.3561 78.5219 26.7207 79.0997 28.1441 79.1014H128.021C129.444 79.0997 130.809 78.5219 131.815 77.4947C132.822 76.4675 133.388 75.0747 133.389 73.622V28.9406C133.388 27.4878 132.822 26.0951 131.815 25.0679C130.809 24.0407 129.444 23.4629 128.021 23.4612H28.1441Z" fill="#3F3D56"/>
<path d="M226.65 123.702H126.774C125.123 123.7 123.541 123.03 122.374 121.839C121.206 120.648 120.55 119.032 120.548 117.348V72.6664C120.55 70.9817 121.206 69.3665 122.374 68.1752C123.541 66.984 125.123 66.3139 126.774 66.312H226.65C228.301 66.3139 229.884 66.984 231.051 68.1752C232.218 69.3665 232.875 70.9817 232.877 72.6664V117.348C232.875 119.032 232.218 120.648 231.051 121.839C229.884 123.03 228.301 123.7 226.65 123.702ZM126.774 67.1871C125.351 67.1887 123.986 67.7665 122.98 68.7937C121.973 69.8209 121.407 71.2137 121.405 72.6664V117.348C121.407 118.8 121.973 120.193 122.979 121.22C123.986 122.248 125.351 122.826 126.774 122.827H226.65C228.074 122.826 229.439 122.248 230.445 121.22C231.452 120.193 232.018 118.8 232.019 117.348V72.6664C232.018 71.2137 231.451 69.8209 230.445 68.7937C229.438 67.7665 228.074 67.1887 226.65 67.1871H126.774Z" fill="#3F3D56"/>
<path d="M290.969 183.825C290.239 183.824 289.538 183.532 289.006 183.008C288.474 182.484 288.151 181.767 288.104 181.003L287.677 174.162C287.627 173.363 287.882 172.576 288.385 171.974C288.887 171.372 289.597 171.004 290.358 170.952L341.403 167.442C343.028 167.33 344.629 167.901 345.853 169.028C347.078 170.156 347.825 171.748 347.932 173.454C348.038 175.16 347.495 176.841 346.421 178.127C345.347 179.412 343.831 180.197 342.206 180.309L291.161 183.819C291.097 183.823 291.033 183.825 290.969 183.825Z" fill="#001146"/>
<path d="M301.766 183.825C301.046 183.824 300.354 183.546 299.835 183.05C299.317 182.554 299.012 181.878 298.984 181.163L298.632 171.805C298.618 171.442 298.677 171.08 298.804 170.74C298.931 170.399 299.125 170.087 299.373 169.821C299.622 169.555 299.921 169.34 300.254 169.188C300.586 169.037 300.945 168.952 301.311 168.939L341.964 167.43C342.702 167.403 343.421 167.667 343.962 168.166C344.504 168.665 344.823 169.357 344.851 170.09L345.203 179.448C345.217 179.811 345.158 180.173 345.031 180.513C344.904 180.854 344.71 181.166 344.462 181.432C344.213 181.698 343.914 181.913 343.581 182.065C343.249 182.216 342.89 182.301 342.524 182.314L301.871 183.823C301.836 183.825 301.801 183.825 301.766 183.825Z" fill="#2F2E41"/>
<path d="M348.118 271.277H342.292C341.611 271.276 340.959 270.987 340.478 270.473C339.997 269.959 339.726 269.262 339.726 268.535V216.63C339.726 215.902 339.997 215.205 340.478 214.691C340.959 214.177 341.611 213.888 342.292 213.887H348.118C348.799 213.888 349.451 214.177 349.932 214.691C350.413 215.205 350.684 215.902 350.684 216.63V268.535C350.684 269.262 350.413 269.959 349.932 270.473C349.451 270.987 348.799 271.276 348.118 271.277Z" fill="#2F2E41"/>
<path d="M334.42 271.277H328.593C327.913 271.276 327.261 270.987 326.78 270.473C326.299 269.959 326.028 269.262 326.027 268.535V216.63C326.028 215.902 326.299 215.205 326.78 214.691C327.261 214.177 327.913 213.888 328.593 213.887H334.42C335.101 213.888 335.753 214.177 336.234 214.691C336.715 215.205 336.985 215.902 336.986 216.63V268.535C336.985 269.262 336.715 269.959 336.234 270.473C335.753 270.987 335.101 271.276 334.42 271.277Z" fill="#2F2E41"/>
<path d="M339.726 156.497C351.831 156.497 361.644 146.708 361.644 134.634C361.644 122.559 351.831 112.771 339.726 112.771C327.622 112.771 317.809 122.559 317.809 134.634C317.809 146.708 327.622 156.497 339.726 156.497Z" fill="#001146"/>
<path d="M329.433 145.564C328.821 145.579 328.214 145.44 327.652 145.156C327.272 144.944 326.937 144.637 326.669 144.257C326.401 143.876 326.207 143.431 326.1 142.953C326.019 142.615 326.005 142.259 326.061 141.913C326.116 141.568 326.238 141.242 326.418 140.961C326.89 140.249 327.704 139.91 328.663 139.996L326.29 132.181L326.958 131.901L329.747 141.088L329.118 140.92C328.389 140.726 327.443 140.769 326.977 141.473C326.864 141.655 326.788 141.865 326.755 142.087C326.723 142.309 326.734 142.537 326.788 142.753C326.869 143.108 327.014 143.439 327.213 143.723C327.413 144.006 327.662 144.236 327.943 144.396C328.929 144.92 330.083 144.733 331.381 144.457L331.507 145.277C330.824 145.445 330.13 145.541 329.433 145.564Z" fill="#2F2E41"/>
<path d="M323.171 133.513L317.809 134.634L317.986 135.475L323.348 134.354L323.171 133.513Z" fill="#2F2E41"/>
<path d="M336.869 130.78L331.507 131.901L331.684 132.742L337.047 131.621L336.869 130.78Z" fill="#2F2E41"/>
<path d="M272.063 185.751L296.377 200.016C296.518 200.116 296.678 200.182 296.845 200.209C297.013 200.236 297.183 200.223 297.346 200.172C297.508 200.121 297.658 200.032 297.785 199.913C297.911 199.793 298.012 199.645 298.08 199.479L304.036 186.181C304.149 185.802 304.131 185.392 303.984 185.027C303.838 184.661 303.574 184.363 303.239 184.188L283.052 173.074C282.804 172.914 282.509 172.858 282.224 172.916C281.938 172.974 281.684 173.143 281.508 173.389L271.424 183.536C271.23 183.906 271.181 184.343 271.288 184.752C271.396 185.16 271.651 185.506 271.997 185.714C272.019 185.727 272.04 185.739 272.063 185.751Z" fill="#3F3D56"/>
<path d="M273.973 181.549L297.776 194.757L304.11 183.674L283.69 172.894L273.973 181.549Z" fill="white"/>
<path d="M293.817 178.698C293.941 178.595 293.944 178.393 293.822 178.248C293.7 178.103 293.5 178.069 293.376 178.172C293.251 178.276 293.249 178.477 293.371 178.623C293.493 178.768 293.692 178.802 293.817 178.698Z" fill="#F2F2F2"/>
<path d="M284.907 190.392C284.99 190.323 284.992 190.189 284.91 190.092C284.829 189.995 284.696 189.973 284.613 190.042C284.53 190.111 284.529 190.245 284.61 190.342C284.691 190.439 284.824 190.461 284.907 190.392Z" fill="#F2F2F2"/>
<path d="M357.741 229.674H320.486C319.51 229.673 318.574 229.287 317.883 228.6C317.193 227.913 316.805 226.981 316.804 226.01L324.603 166.493C324.609 165.526 325 164.601 325.689 163.919C326.379 163.238 327.312 162.856 328.283 162.857H341.504C346.785 162.863 351.848 164.953 355.582 168.669C359.316 172.385 361.417 177.423 361.423 182.678V226.01C361.422 226.981 361.033 227.913 360.343 228.6C359.653 229.287 358.717 229.673 357.741 229.674Z" fill="#2F2E41"/>
<path d="M332.295 162.641L322.219 184.626L323.952 166.159C323.947 165.701 324.033 165.247 324.205 164.823C324.376 164.399 324.63 164.012 324.952 163.686C325.274 163.359 325.657 163.098 326.08 162.919C326.503 162.74 326.957 162.646 327.417 162.641H332.295Z" fill="#CCCCCC"/>
<path d="M299.564 204.824C299.02 204.824 298.488 204.668 298.032 204.375C297.575 204.081 297.214 203.662 296.991 203.169L294.374 197.364C294.222 197.028 294.139 196.666 294.128 196.298C294.117 195.93 294.18 195.564 294.311 195.22C294.443 194.876 294.641 194.561 294.895 194.294C295.149 194.026 295.453 193.811 295.79 193.66L341.494 173.258C342.949 172.608 344.604 172.56 346.094 173.125C347.584 173.689 348.788 174.82 349.441 176.268C350.094 177.715 350.142 179.362 349.574 180.845C349.007 182.328 347.871 183.526 346.416 184.176L300.712 204.579C300.351 204.74 299.96 204.824 299.564 204.824Z" fill="#001146"/>
<path d="M312.895 201.827C312.352 201.827 311.82 201.671 311.363 201.377C310.907 201.084 310.545 200.665 310.322 200.172L305.852 190.256C305.547 189.578 305.525 188.807 305.791 188.113C306.056 187.419 306.588 186.858 307.269 186.553L344.798 169.799C345.136 169.649 345.5 169.566 345.869 169.555C346.239 169.544 346.607 169.606 346.953 169.737C347.298 169.868 347.614 170.065 347.883 170.318C348.152 170.57 348.369 170.873 348.52 171.209L352.99 181.124C353.141 181.46 353.225 181.822 353.235 182.19C353.246 182.558 353.184 182.924 353.052 183.268C352.921 183.612 352.722 183.927 352.469 184.194C352.215 184.462 351.911 184.677 351.573 184.828L314.044 201.581C313.683 201.743 313.291 201.827 312.895 201.827Z" fill="#2F2E41"/>
<path d="M334.391 121.534C330.794 120.215 327.837 123.689 324.578 124.484C321.46 125.245 318.1 123.455 316.435 120.846C314.491 117.802 314.973 113.851 316.74 110.846C318.676 107.555 322.124 105.535 325.778 104.653C329.967 103.642 334.33 104.14 338.464 105.166C342.428 106.09 346.272 107.467 349.919 109.27C353.215 110.968 356.34 113.291 358.267 116.508C360.017 119.432 360.884 123.071 360.017 126.42C359.54 128.15 358.623 129.727 357.355 131.001C356.05 132.376 354.555 133.567 353.338 135.025C351.499 137.23 350.262 140.843 352.076 143.451C352.469 144.022 352.998 144.487 353.614 144.807C354.355 145.191 355.013 144.076 354.27 143.691C352.966 143.014 352.492 141.642 352.527 140.243C352.597 138.655 353.207 137.138 354.257 135.94C355.532 134.416 357.107 133.182 358.453 131.725C359.755 130.367 360.708 128.716 361.231 126.913C362.187 123.426 361.439 119.627 359.747 116.485C357.915 113.085 354.844 110.518 351.503 108.652C347.867 106.621 343.825 105.26 339.813 104.179C335.507 103.02 330.986 102.367 326.555 103.169C322.715 103.865 318.961 105.71 316.546 108.832C314.291 111.746 313.214 115.717 314.305 119.303C314.822 120.927 315.765 122.384 317.036 123.524C318.308 124.665 319.861 125.447 321.537 125.792C323.242 126.104 325.002 125.876 326.568 125.139C328.257 124.386 329.79 123.216 331.585 122.715C332.391 122.47 333.255 122.493 334.046 122.781C334.832 123.069 335.171 121.819 334.391 121.534Z" fill="#2F2E41"/>
<path d="M399.485 271.245H260.735C260.598 271.244 260.468 271.19 260.371 271.094C260.275 270.998 260.221 270.867 260.221 270.732C260.221 270.596 260.275 270.465 260.371 270.369C260.468 270.273 260.598 270.219 260.735 270.218H399.485C399.621 270.218 399.753 270.272 399.849 270.369C399.946 270.465 400 270.595 400 270.732C400 270.868 399.946 270.998 399.849 271.094C399.753 271.191 399.621 271.245 399.485 271.245Z" fill="#3F3D56"/>
</g>
<defs>
<clipPath id="clip0_4733_77338">
<rect width="400" height="270.554" fill="white" transform="translate(0 0.723145)"/>
</clipPath>
</defs>
</svg>
