<svg width="32" height="33" viewBox="0 0 32 33" fill="none" xmlns="http://www.w3.org/2000/svg">
<path d="M28 0C30.1875 0 32 1.8125 32 4V22C32 24.25 30.1875 26 28 26H19L11.1875 31.875C10.6875 32.25 10 31.875 10 31.25V26H4C1.75 26 0 24.25 0 22V4C0 1.8125 1.75 0 4 0H28ZM18 16.5V15.5C18 15.25 17.75 15 17.5 15H8.5C8.1875 15 8 15.25 8 15.5V16.5C8 16.8125 8.1875 17 8.5 17H17.5C17.75 17 18 16.8125 18 16.5ZM24 10.5V9.5C24 9.25 23.75 9 23.5 9H8.5C8.1875 9 8 9.25 8 9.5V10.5C8 10.8125 8.1875 11 8.5 11H23.5C23.75 11 24 10.8125 24 10.5Z" fill="#717274"/>
</svg>
