<svg width="54" height="40" viewBox="0 0 54 40" fill="none" xmlns="http://www.w3.org/2000/svg">
<path d="M37.6406 9.35938C38.0156 8.98438 38.625 9.26562 38.625 9.73438V16.4375C38.625 16.7656 38.3438 17 38.0625 17H31.3125C30.8438 17 30.5625 16.4375 30.9375 16.0625L33.4688 13.5312C31.8281 11.8438 29.5312 10.8125 27 10.8125C22.0781 10.8125 18.0938 14.6562 17.8125 19.4844C17.7656 19.8125 17.5312 20 17.25 20H15.9375C15.6094 20 15.3281 19.7656 15.375 19.4375C15.6562 13.2969 20.7656 8.375 27 8.375C30.1875 8.375 33.0938 9.6875 35.2031 11.7969L37.6406 9.35938ZM38.0156 20C38.3438 20 38.625 20.2812 38.5781 20.6094C38.2969 26.75 33.1875 31.625 27 31.625C23.7656 31.625 20.8594 30.3594 18.75 28.25L16.3125 30.6875C15.9375 31.0625 15.375 30.7812 15.375 30.3125V23.5625C15.375 23.2812 15.6094 23 15.9375 23H22.6406C23.1094 23 23.3906 23.6094 23.0156 23.9844L20.4844 26.5156C22.125 28.2031 24.4219 29.1875 27 29.1875C31.875 29.1875 35.8594 25.3906 36.1406 20.5625C36.1875 20.2344 36.4219 20 36.7031 20H38.0156Z" fill="#717274"/>
</svg>
