<?xml version="1.0" encoding="utf-8"?>
<!-- Generator: Adobe Illustrator 27.5.0, SVG Export Plug-In . SVG Version: 6.00 Build 0)  -->
<svg version="1.1" id="Layer_1" xmlns="http://www.w3.org/2000/svg" xmlns:xlink="http://www.w3.org/1999/xlink" x="0px" y="0px"
	 viewBox="0 0 110 110" style="enable-background:new 0 0 110 110;" xml:space="preserve">
<style type="text/css">
	.st0{fill:none;}
</style>
<path class="st0" d="M60.2,34.3l-0.5,3.8c6.4,3.7,11,10.1,12.5,17.6L76,56C74.5,46.5,68.5,38.6,60.2,34.3z"/>
<path d="M74.5,38.7H46.4L30,71.2h14.6l5-9.7h15.9c4.5,0,6.7-2.1,7.9-4.6L79,45.8c0.5-1,1-2.2,1-3.4C80,40.2,78.1,38.7,74.5,38.7z
	 M64.8,46.5l-4,7.8c-0.5,1-1.3,1.7-3,1.7h-5.5l6-11.8h5.4c1.1,0,1.6,0.5,1.6,1.1C65.2,45.7,65,46,64.8,46.5z"/>
</svg>
