<svg width="17" height="16" viewBox="0 0 17 16" fill="none" xmlns="http://www.w3.org/2000/svg">
<path d="M15.3701 0.90625C15.6201 0.65625 16.0264 0.84375 16.0264 1.15625V5.625C16.0264 5.84375 15.8389 6 15.6514 6H11.1514C10.8389 6 10.6514 5.625 10.9014 5.375L12.5889 3.6875C11.4951 2.5625 9.96387 1.875 8.27637 1.875C4.99512 1.875 2.33887 4.4375 2.15137 7.65625C2.12012 7.875 1.96387 8 1.77637 8H0.901367C0.682617 8 0.495117 7.84375 0.526367 7.625C0.713867 3.53125 4.12012 0.25 8.27637 0.25C10.4014 0.25 12.3389 1.125 13.7451 2.53125L15.3701 0.90625ZM15.6201 8C15.8389 8 16.0264 8.1875 15.9951 8.40625C15.8076 12.5 12.4014 15.75 8.27637 15.75C6.12012 15.75 4.18262 14.9062 2.77637 13.5L1.15137 15.125C0.901367 15.375 0.526367 15.1875 0.526367 14.875V10.375C0.526367 10.1875 0.682617 10 0.901367 10H5.37012C5.68262 10 5.87012 10.4062 5.62012 10.6562L3.93262 12.3438C5.02637 13.4688 6.55762 14.125 8.27637 14.125C11.5264 14.125 14.1826 11.5938 14.3701 8.375C14.4014 8.15625 14.5576 8 14.7451 8H15.6201Z" fill="white"/>
</svg>
