<svg width="16" height="17" viewBox="0 0 16 17" fill="none" xmlns="http://www.w3.org/2000/svg">
<path d="M8.12891 0.548584C12.3789 0.548584 15.8789 4.04858 15.8789 8.29858C15.8789 12.5798 12.3789 16.0486 8.12891 16.0486C3.84766 16.0486 0.378906 12.5798 0.378906 8.29858C0.378906 4.04858 3.84766 0.548584 8.12891 0.548584ZM8.12891 14.5486C11.5664 14.5486 14.3789 11.7673 14.3789 8.29858C14.3789 4.86108 11.5664 2.04858 8.12891 2.04858C4.66016 2.04858 1.87891 4.86108 1.87891 8.29858C1.87891 11.7673 4.66016 14.5486 8.12891 14.5486ZM8.12891 3.98608C8.84766 3.98608 9.44141 4.57983 9.44141 5.29858C9.44141 6.04858 8.84766 6.61108 8.12891 6.61108C7.37891 6.61108 6.81641 6.04858 6.81641 5.29858C6.81641 4.57983 7.37891 3.98608 8.12891 3.98608ZM9.87891 11.9236C9.87891 12.1423 9.69141 12.2986 9.50391 12.2986L6.75391 12.2986C6.53516 12.2986 6.37891 12.1423 6.37891 11.9236L6.37891 11.1736C6.37891 10.9861 6.53516 10.7986 6.75391 10.7986L7.12891 10.7986L7.12891 8.79858L6.75391 8.79858C6.53516 8.79858 6.37891 8.64233 6.37891 8.42358L6.37891 7.67358C6.37891 7.48608 6.53516 7.29858 6.75391 7.29858L8.75391 7.29858C8.94141 7.29858 9.12891 7.48608 9.12891 7.67358L9.12891 10.7986L9.50391 10.7986C9.69141 10.7986 9.87891 10.9861 9.87891 11.1736L9.87891 11.9236Z" fill="#002496"/>
</svg>
