<svg width="174" height="41" viewBox="0 0 174 41" fill="none" xmlns="http://www.w3.org/2000/svg">
<path d="M27.5 13.4165C28.3125 13.4165 29 14.104 29 14.9165V25.9165C29 26.7603 28.3125 27.4165 27.5 27.4165H16.5C15.6562 27.4165 15 26.7603 15 25.9165V14.9165C15 14.104 15.6562 13.4165 16.5 13.4165H27.5ZM27.3125 25.9165C27.4062 25.9165 27.5 25.854 27.5 25.729V15.104C27.5 15.0103 27.4062 14.9165 27.3125 14.9165H16.6875C16.5625 14.9165 16.5 15.0103 16.5 15.104V25.729C16.5 25.854 16.5625 25.9165 16.6875 25.9165H27.3125ZM25.625 16.4165C25.8125 16.4165 26 16.604 26 16.7915L25.9688 21.0415C25.9688 21.2603 25.8125 21.4165 25.5938 21.4165H24.75C24.5312 21.4165 24.3438 21.2603 24.375 21.0415L24.4375 19.229L19.3438 24.3228C19.1875 24.479 18.9688 24.479 18.8125 24.3228L18.0938 23.604C17.9375 23.4478 17.9375 23.229 18.0938 23.0728L23.1875 17.979L21.375 18.0415C21.1562 18.0728 21 17.8853 21 17.6665V16.8228C21 16.604 21.1562 16.4478 21.375 16.4478L25.625 16.4165Z" fill="#002084"/>
<path d="M38.064 14.5045H39.828V20.7625C39.828 21.6725 40.346 22.9885 42.054 22.9885C43.762 22.9885 44.28 21.6725 44.28 20.7625V14.5045H46.044V20.8465C46.044 22.7925 44.672 24.6685 42.054 24.6685C39.422 24.6685 38.064 22.7785 38.064 20.8465V14.5045ZM52.0035 17.5285C54.0335 17.5285 55.3075 19.0545 55.3075 21.0565C55.3075 22.9605 54.0475 24.5845 52.0595 24.5845C51.1635 24.5845 50.3375 24.2765 49.7775 23.5625H49.7355V27.6085H48.0555V17.6965H49.6515V18.7045H49.6795C50.2115 17.8505 51.0935 17.5285 52.0035 17.5285ZM49.6795 21.0565C49.6795 22.2605 50.5615 23.0725 51.6535 23.0725C52.7875 23.0725 53.6275 22.2185 53.6275 21.0565C53.6275 20.0905 52.9555 19.0405 51.6395 19.0405C50.5195 19.0405 49.6795 19.9085 49.6795 21.0565ZM62.1099 13.8325H63.7899V24.4165H62.1939V23.4085H62.1659C61.6619 24.2345 60.7799 24.5845 59.8419 24.5845C57.7979 24.5845 56.5379 23.0725 56.5379 21.0565C56.5379 19.1525 57.7979 17.5285 59.7859 17.5285C60.6819 17.5285 61.4939 17.8365 62.0679 18.5505H62.1099V13.8325ZM58.2179 21.0565C58.2179 22.1765 59.0159 23.0725 60.1919 23.0725C61.5359 23.0725 62.1659 21.9805 62.1659 21.0565C62.1659 19.8385 61.2559 19.0405 60.1919 19.0405C59.0159 19.0405 58.2179 19.9505 58.2179 21.0565ZM68.5342 17.5285C70.8302 17.5285 71.4042 18.8165 71.4042 20.3985V24.4165H69.8922V23.4925H69.8502C69.3742 24.2485 68.5902 24.5845 67.6942 24.5845C66.3082 24.5845 65.2442 23.8005 65.2442 22.5685C65.2442 21.0145 66.4902 20.2305 69.3742 20.2305H69.8922V20.0345C69.8922 19.2505 69.2762 18.7885 68.3522 18.7885C67.6522 18.7885 67.0222 19.0685 66.5602 19.4885L65.6782 18.6065C66.2802 17.9905 67.2182 17.5285 68.5342 17.5285ZM66.9242 22.4425C66.9242 23.0165 67.4842 23.3245 68.1142 23.3245C69.2622 23.3245 69.7942 22.6805 69.7942 21.8265V21.4065H69.3042C67.8202 21.4065 66.9242 21.7285 66.9242 22.4425ZM73.8138 15.7505H75.4938V17.6965H77.3418V19.1245H75.4938V22.1065C75.4938 22.8205 75.7738 23.1565 76.4318 23.1565C76.8518 23.1565 77.2018 23.0585 77.3418 22.9465V24.3605C77.0198 24.5145 76.3898 24.5845 76.0118 24.5845C74.4298 24.5845 73.8138 23.9685 73.8138 22.2745V19.1245H72.4278V17.6965H73.8138V15.7505ZM81.9712 17.5285C84.0992 17.5285 85.1212 19.1385 85.1212 21.1685V21.6445H79.9972C80.1092 22.6105 80.8372 23.2405 81.8032 23.2405C82.5592 23.2405 83.1332 22.9185 83.6092 22.3305L84.8132 23.2405C84.0852 24.1365 83.1192 24.5845 81.9712 24.5845C79.9132 24.5845 78.3172 23.1565 78.3172 21.0565C78.3172 18.9705 79.9132 17.5285 81.9712 17.5285ZM79.9972 20.3845H83.4412C83.4272 19.3345 82.7132 18.7885 81.7192 18.7885C80.7252 18.7885 80.1232 19.4325 79.9972 20.3845ZM95.7068 14.2525C97.0788 14.2525 98.5488 14.5465 99.5988 15.4985L98.2968 16.8145C97.6248 16.1705 96.6308 15.8485 95.7068 15.8485C93.6768 15.8485 92.3048 17.4165 92.3048 19.3905C92.3048 21.4345 93.5928 23.0725 95.7208 23.0725C96.4628 23.0725 97.3308 22.9465 98.0308 22.5545V20.2165H96.0008V18.6205H99.7948V23.6885C98.4788 24.3885 97.0928 24.6685 95.7068 24.6685C92.6268 24.6685 90.4568 22.5685 90.4568 19.5025C90.4568 16.3805 92.5848 14.2525 95.7068 14.2525ZM101.731 17.6965H103.411V21.1685C103.411 22.5125 103.831 23.0725 104.643 23.0725C105.637 23.0725 106.183 22.4005 106.183 21.3645V17.6965H107.863V24.4165H106.267V23.3385H106.239C105.847 24.1785 105.133 24.5845 104.181 24.5845C102.221 24.5845 101.731 23.1005 101.731 21.9945V17.6965ZM112.612 17.5285C114.908 17.5285 115.482 18.8165 115.482 20.3985V24.4165H113.97V23.4925H113.928C113.452 24.2485 112.668 24.5845 111.772 24.5845C110.386 24.5845 109.322 23.8005 109.322 22.5685C109.322 21.0145 110.568 20.2305 113.452 20.2305H113.97V20.0345C113.97 19.2505 113.354 18.7885 112.43 18.7885C111.73 18.7885 111.1 19.0685 110.638 19.4885L109.756 18.6065C110.358 17.9905 111.296 17.5285 112.612 17.5285ZM111.002 22.4425C111.002 23.0165 111.562 23.3245 112.192 23.3245C113.34 23.3245 113.872 22.6805 113.872 21.8265V21.4065H113.382C111.898 21.4065 111.002 21.7285 111.002 22.4425ZM120.986 17.5285C121.238 17.5285 121.364 17.5705 121.588 17.6265V19.2505C121.266 19.1665 121.028 19.1245 120.776 19.1245C119.502 19.1245 118.97 20.0205 118.97 20.9165V24.4165H117.29V17.6965H118.97V18.7605H118.998C119.362 17.9905 120.104 17.5285 120.986 17.5285ZM125.573 17.5285C127.869 17.5285 128.443 18.8165 128.443 20.3985V24.4165H126.931V23.4925H126.889C126.413 24.2485 125.629 24.5845 124.733 24.5845C123.347 24.5845 122.283 23.8005 122.283 22.5685C122.283 21.0145 123.529 20.2305 126.413 20.2305H126.931V20.0345C126.931 19.2505 126.315 18.7885 125.391 18.7885C124.691 18.7885 124.061 19.0685 123.599 19.4885L122.717 18.6065C123.319 17.9905 124.257 17.5285 125.573 17.5285ZM123.963 22.4425C123.963 23.0165 124.523 23.3245 125.153 23.3245C126.301 23.3245 126.833 22.6805 126.833 21.8265V21.4065H126.343C124.859 21.4065 123.963 21.7285 123.963 22.4425ZM133.933 17.5285C135.935 17.5285 136.383 19.0825 136.383 20.1185V24.4165H134.703V20.9305C134.703 19.5865 134.269 19.0405 133.471 19.0405C132.393 19.0405 131.931 19.8245 131.931 20.7205V24.4165H130.251V17.6965H131.847V18.7745H131.875C132.281 17.8925 133.051 17.5285 133.933 17.5285ZM138.892 15.7505H140.572V17.6965H142.42V19.1245H140.572V22.1065C140.572 22.8205 140.852 23.1565 141.51 23.1565C141.93 23.1565 142.28 23.0585 142.42 22.9465V24.3605C142.098 24.5145 141.468 24.5845 141.09 24.5845C139.508 24.5845 138.892 23.9685 138.892 22.2745V19.1245H137.506V17.6965H138.892V15.7505ZM147.049 17.5285C149.177 17.5285 150.199 19.1385 150.199 21.1685V21.6445H145.075C145.187 22.6105 145.915 23.2405 146.881 23.2405C147.637 23.2405 148.211 22.9185 148.687 22.3305L149.891 23.2405C149.163 24.1365 148.197 24.5845 147.049 24.5845C144.991 24.5845 143.395 23.1565 143.395 21.0565C143.395 18.9705 144.991 17.5285 147.049 17.5285ZM145.075 20.3845H148.519C148.505 19.3345 147.791 18.7885 146.797 18.7885C145.803 18.7885 145.201 19.4325 145.075 20.3845ZM155.088 17.5285C157.216 17.5285 158.238 19.1385 158.238 21.1685V21.6445H153.114C153.226 22.6105 153.954 23.2405 154.92 23.2405C155.676 23.2405 156.25 22.9185 156.726 22.3305L157.93 23.2405C157.202 24.1365 156.236 24.5845 155.088 24.5845C153.03 24.5845 151.434 23.1565 151.434 21.0565C151.434 18.9705 153.03 17.5285 155.088 17.5285ZM153.114 20.3845H156.558C156.544 19.3345 155.83 18.7885 154.836 18.7885C153.842 18.7885 153.24 19.4325 153.114 20.3845Z" fill="#002084"/>
</svg>
