<svg width="14" height="17" viewBox="0 0 14 17" fill="none" xmlns="http://www.w3.org/2000/svg">
<path d="M12.5 1.4165C13.3125 1.4165 14 2.104 14 2.9165V13.9165C14 14.7603 13.3125 15.4165 12.5 15.4165H1.5C0.65625 15.4165 0 14.7603 0 13.9165V2.9165C0 2.104 0.65625 1.4165 1.5 1.4165H12.5ZM12.3125 13.9165C12.4062 13.9165 12.5 13.854 12.5 13.729V3.104C12.5 3.01025 12.4062 2.9165 12.3125 2.9165H1.6875C1.5625 2.9165 1.5 3.01025 1.5 3.104V13.729C1.5 13.854 1.5625 13.9165 1.6875 13.9165H12.3125ZM10.625 4.4165C10.8125 4.4165 11 4.604 11 4.7915L10.9688 9.0415C10.9688 9.26025 10.8125 9.4165 10.5938 9.4165H9.75C9.53125 9.4165 9.34375 9.26025 9.375 9.0415L9.4375 7.229L4.34375 12.3228C4.1875 12.479 3.96875 12.479 3.8125 12.3228L3.09375 11.604C2.9375 11.4478 2.9375 11.229 3.09375 11.0728L8.1875 5.979L6.375 6.0415C6.15625 6.07275 6 5.88525 6 5.6665V4.82275C6 4.604 6.15625 4.44775 6.375 4.44775L10.625 4.4165Z" fill="#002084"/>
</svg>
